<svg width="33" height="27" viewBox="0 0 33 27" fill="none" xmlns="http://www.w3.org/2000/svg">
<g opacity="0.45">
<path d="M11.6 11.6C13.3121 11.6 14.7 10.2121 14.7 8.50002C14.7 6.78794 13.3121 5.40002 11.6 5.40002C9.88792 5.40002 8.5 6.78794 8.5 8.50002C8.5 10.2121 9.88792 11.6 11.6 11.6Z" stroke="black" stroke-width="1.5"/>
<path d="M17.8 17.8C17.8 19.5127 17.8 20.9 11.6 20.9C5.40002 20.9 5.40002 19.5127 5.40002 17.8C5.40002 16.0872 8.17452 14.7 11.6 14.7C15.0255 14.7 17.8 16.0872 17.8 17.8Z" stroke="black" stroke-width="1.5"/>
<path d="M0.75 13.15C0.75 7.30495 0.75 4.38165 2.5666 2.5666C4.3832 0.75155 7.30495 0.75 13.15 0.75H19.35C25.195 0.75 28.1183 0.75 29.9334 2.5666C31.7484 4.3832 31.75 7.30495 31.75 13.15C31.75 18.995 31.75 21.9183 29.9334 23.7334C28.1168 25.5484 25.195 25.55 19.35 25.55H13.15C7.30495 25.55 4.38165 25.55 2.5666 23.7334C0.75155 21.9168 0.75 18.995 0.75 13.15Z" stroke="black" stroke-width="1.5"/>
<path d="M27.1 13.15H20.9M27.1 8.5H19.35M27.1 17.8H22.45" stroke="black" stroke-width="1.5" stroke-linecap="round"/>
</g>
</svg>
